inDegrees=no
num_controls=7
num_derivatives=13
num_iterations=154
num_multipliers=7
num_parameters=0
num_slacks=7
num_states=26
objective=0.542700
objective_accelerations=0.066055
objective_balance=0.003438
objective_effort=0.048361
objective_height=0.415698
objective_ligament=0.009148
solver_duration=1665.936378
status=Solve_Succeeded
success=true
DataType=double
version=3
OpenSimVersion=4.5
endheader
time	/jointset/ground_pelvis/pelvis_tilt/value	/jointset/ground_pelvis/pelvis_tx/value	/jointset/ground_pelvis/pelvis_ty/value	/jointset/hip_r/hip_flexion_r/value	/jointset/hip_r/hip_adduction_r/value	/jointset/hip_r/hip_rotation_r/value	/jointset/back/lumbar_extension/value	/jointset/patellofemoral_r/patellar_flexion_r/value	/jointset/knee_r/knee_flexion_r/value	/jointset/knee_r/knee_adduction_r/value	/jointset/knee_r/knee_rotation_r/value	/jointset/ankle_r/ankle_angle_r/value	/jointset/subtalar_r/subtalar_angle_r/value	/jointset/ground_pelvis/pelvis_tilt/speed	/jointset/ground_pelvis/pelvis_tx/speed	/jointset/ground_pelvis/pelvis_ty/speed	/jointset/hip_r/hip_flexion_r/speed	/jointset/hip_r/hip_adduction_r/speed	/jointset/hip_r/hip_rotation_r/speed	/jointset/back/lumbar_extension/speed	/jointset/patellofemoral_r/patellar_flexion_r/speed	/jointset/knee_r/knee_flexion_r/speed	/jointset/knee_r/knee_adduction_r/speed	/jointset/knee_r/knee_rotation_r/speed	/jointset/ankle_r/ankle_angle_r/speed	/jointset/subtalar_r/subtalar_angle_r/speed	/forceset/tau_hip_flexion_r	/forceset/tau_hip_adduction_r	/forceset/tau_hip_rotation_r	/forceset/tau_knee_flexion_r	/forceset/tau_ankle_angle_r	/forceset/tau_subtalar_angle_r	/forceset/tau_lumbar_extension	lambda_cid13_p0	lambda_cid14_p0	lambda_cid14_p1	lambda_cid14_p2	lambda_cid14_p3	lambda_cid14_p4	lambda_cid14_p5	/jointset/ground_pelvis/pelvis_tilt/accel	/jointset/ground_pelvis/pelvis_tx/accel	/jointset/ground_pelvis/pelvis_ty/accel	/jointset/hip_r/hip_flexion_r/accel	/jointset/hip_r/hip_adduction_r/accel	/jointset/hip_r/hip_rotation_r/accel	/jointset/back/lumbar_extension/accel	/jointset/patellofemoral_r/patellar_flexion_r/accel	/jointset/knee_r/knee_flexion_r/accel	/jointset/knee_r/knee_adduction_r/accel	/jointset/knee_r/knee_rotation_r/accel	/jointset/ankle_r/ankle_angle_r/accel	/jointset/subtalar_r/subtalar_angle_r/accel	gamma_cid13_p0	gamma_cid14_p0	gamma_cid14_p1	gamma_cid14_p2	gamma_cid14_p3	gamma_cid14_p4	gamma_cid14_p5
1.5	-0.2128323105232495	0.009872831404903009	0.8106879386107625	0.9859657416095756	-0.2165300176101049	-0.1326210980057793	-0.3090116840818296	0.8651873229103448	0.8651873229104955	-0.03192826465283288	0.1745277737753529	0.2764416823390415	0.07896805631588651	0.4941064447760982	0.2098905620866215	0.5921436164222651	-2.309288356876716	0.00825650438080947	-0.208008591144776	0.6971132835751002	-2.335651085634739	-2.33565108563476	0.4809022634086129	-5.964742761807332e-05	-0.6346174631814716	-0.188878386627172	-0.1345437948452231	-0.02071864603949103	0.01152548982453198	-0.3533497040085987	0.09268333043203349	-0.001624531613248372	0.1695420541491702	-21.07626331039048	-10.19040348013975	-0.07304714283075073	-2.288899016260721	-3.961723130738073	-642.1191018527217	61.6363420062635	0.4769534814667511	0.6512419251991536	-0.7566966833291544	-1.224518906788299	-0.226352003273553	-0.9127724226982761	1.751894939505852	-1.357117698586698	-1.357117698586707	0.3810987860482412	-0.03606518521133056	-0.815561941715912	-0.368766658998869	1.750122830839395e-07	9.034619866041222e-08	-1.929001069340921e-06	7.128516287829719e-07	1.610721507190623e-07	2.425507333344276e-07	-1.152690491665162e-06
1.51	-0.2078679565977219	0.01200400081640439	0.8165702439705942	0.9628142528753746	-0.2164594526598585	-0.1347482837434801	-0.3019541766893052	0.8417659459621467	0.8417659459622564	-0.02709996139625443	0.1745273553249191	0.2700554942458432	0.07706032819934971	0.4986815055619251	0.2163081453860987	0.5841866246473895	-2.320697446682884	0.005861271242418762	-0.2174251564375325	0.7142883703298213	-2.348300767803024	-2.348300767803031	0.484745042303127	-3.645167595531826e-05	-0.6425183643231618	-0.1926137122876136	-0.1269544556742411	-0.02239792022465089	0.011321679276254	-0.348510889648333	0.09479043372171776	-0.002646472557758323	0.1626644692892231	-22.61237761922428	-9.240714591652699	-0.1963987513810261	-2.445359897790383	-4.16996738056611	-636.2495722339471	61.34694300846143	0.4353629420809272	0.6317874256342674	-0.8347846186659313	-1.052305391173153	-0.2455249840044929	-0.9553552829216043	1.685341853490481	-1.170398913214342	-1.170398913212157	0.3835433372875952	0.01967727983511829	-0.7620179895284036	-0.3682114570543925	1.778671368188037e-07	5.558795796539972e-08	-2.15967685585848e-06	4.335476401641407e-07	2.102522836434369e-07	2.159206184099748e-07	-1.238564163483738e-06
1.52	-0.2028603359513473	0.01419830023956303	0.8223690625738574	0.9395580329683837	-0.2164127232439723	-0.1369694864741804	-0.2947279131672265	0.8182277711048128	0.8182277711048815	-0.02223369517150452	0.1745268018968926	0.2635933643834015	0.07511678763871098	0.5027597889453609	0.2225165644180742	0.5754462651085425	-2.330234591434737	0.00348939750872278	-0.2268119897445801	0.7308645094859503	-2.359010667461904	-2.359010667461896	0.4884948570430257	-8.664294509084678e-05	-0.6498058170301658	-0.1960408754475595	-0.1193651165032621	-0.02407719440981429	0.01111786872799035	-0.3436720752880672	0.09689753701140102	-0.003668413502273474	0.1557868844292737	-24.13261619525883	-8.297453192180054	-0.3186304381275979	-2.604563610231772	-4.374964459830908	-630.4814853234515	61.1162829738842	0.3775980009885541	0.6094090716987972	-0.9133702361234256	-0.8501298959252656	-0.2216801223346185	-0.9068260255564882	1.632105419787439	-0.9691611967055183	-0.9691611967055206	0.3625059551251452	-0.05074258937095992	-0.6928722547787104	-0.3071341588997658	1.860530535407348e-07	1.79010479237693e-08	-2.490193309081924e-06	9.463880822522558e-08	2.697498767416298e-07	1.902377964609003e-07	-1.343243907544445e-06
1.53	-0.1978144642806345	0.01645366149079136	0.8280766756720137	0.9162157327285502	-0.2163894904420378	-0.1392857189463522	-0.28733908865902	0.7945922291961366	0.7945922291961988	-0.01733134230277549	0.1745263050252795	0.2570616533694932	0.07314073011456831	0.506321312730876	0.2285220969673984	0.565955491793439	-2.337908162295533	0.001162084468374315	-0.2364202781088147	0.7467860885978311	-2.367758357207479	-2.367758357207491	0.4919730403968754	-2.294970606446556e-05	-0.6564143296888543	-0.1991149125928297	-0.1113333760906026	-0.0263487200272013	0.01088653198857231	-0.3398481696703176	0.1004001767049212	-0.004749088056624442	0.1486275832649476	-25.63175585709324	-6.923379724965128	-0.3961880333145782	-2.764893736558045	-4.95125390427765	-625.0360959854908	61.09848974984369	0.3314427818367394	0.5911626036060776	-0.9850298184226065	-0.6783796624979073	-0.2378639908321917	-0.9854967198861384	1.555038623292201	-0.7767107672020191	-0.7767107672047794	0.3395906657312278	0.03326366469999362	-0.6264352631348954	-0.2997407215586316	1.999032246864245e-07	-2.28975732986426e-08	-2.926790470680368e-06	-3.076001697412778e-07	3.402097712745045e-07	1.655614732981653e-07	-1.467905103362414e-06
1.54	-0.1927357747291651	0.01876808551892433	0.8336857612491754	0.8928062149838407	-0.2163894521896965	-0.141697567597772	-0.2797944774664139	0.7708793828092624	0.7708793828093147	-0.01239438437246446	0.174526112762883	0.2504675383306537	0.07113549177312938	0.5093233650965385	0.2343291197990046	0.5557407609095806	-2.343678092409976	-0.001149512409862933	-0.2459352255942172	0.762021846365862	-2.374471563101793	-2.374471563101821	0.4954158693593786	-2.572110061583101e-05	-0.662286622016382	-0.2018770389068193	-0.1033016356779456	-0.02862024564458894	0.01065519524913916	-0.3360242640525689	0.1039028163984411	-0.005829762610976283	0.1414682821006195	-27.10573351456192	-5.555183698099118	-0.4745081217055191	-2.925405499485324	-5.517967430955924	-619.678991386734	61.12302680627367	0.2657037170180486	0.5697071281551985	-1.058161749874378	-0.4694017466548793	-0.2185368899123782	-0.8881578497900873	1.494941151017458	-0.5622644264529624	-0.5622644264529433	0.355435076855829	-0.06403551608649503	-0.5456281885465831	-0.2447519926436596	2.027640894179056e-07	-9.52029219824832e-08	-3.378448188080347e-06	-9.767583775521823e-07	4.343439662032626e-07	1.018932582981841e-07	-1.498737049597689e-06
1.55	-0.1876299193464389	0.02113931511007656	0.8391891383148766	0.8693489911456664	-0.216411903969881	-0.1442059368560123	-0.2721012657394227	0.7471096906175264	0.747109690617519	-0.007425229951223167	0.1745264677089459	0.2438183316192212	0.06910489967396032	0.511758014743237	0.2398561465835473	0.5448202407545104	-2.347413998642704	-0.003338038824116417	-0.2556578078151077	0.7764632834479875	-2.379101808359001	-2.379101808359017	0.4984570492609777	5.234164289580652e-05	-0.6674499973568132	-0.204199842393163	-0.09564186871146783	-0.03035262307111881	0.01028120588192266	-0.3313004884681465	0.1057362021125109	-0.007003010221129703	0.1344759769107323	-28.55174125166516	-4.752024185764719	-0.6974593826036851	-3.056587150516712	-5.456945513629161	-614.4893116600576	60.83188262576076	0.2188717278817409	0.5352273174925011	-1.126172275798847	-0.2728110655806436	-0.2193481030002547	-1.002167785821778	1.39516264918372	-0.3586820460805951	-0.3586820460786411	0.2840481559920653	0.0365792907251595	-0.4858505719500836	-0.2207560044910172	1.929633619764948e-07	-2.038095001327505e-07	-3.847458284990787e-06	-1.953453958879445e-06	5.557550724577109e-07	-6.700397296882862e-09	-1.421461382183345e-06
1.56	-0.1825024122393681	0.023564020341852	0.8445798751535323	0.845864983044365	-0.2164563085313729	-0.1468091038119773	-0.2642683561091354	0.7233046404790732	0.7233046404790057	-0.002424545989131617	0.1745261737066738	0.2371206594813526	0.06705213724435555	0.5136537099653734	0.2450242479236472	0.5332127155004172	-2.34903494503539	-0.005540068671104917	-0.2648947651393289	0.7899614270250555	-2.381543152445242	-2.381543152445245	0.5017217775297821	-0.0001555107673863926	-0.6719797073035926	-0.2063111049939583	-0.08798210174499303	-0.03208500049765096	0.009907216514712562	-0.3265767128837243	0.1075695878265806	-0.008176257831284433	0.1274836717208426	-29.9681636380585	-3.953589975204758	-0.9231674357926004	-3.185122231454324	-5.385970464062502	-609.3789997399043	60.53362070012668	0.157912832105675	0.4979220392666128	-1.195562769679007	-0.04640977864648964	-0.2212375764593862	-0.7910328704562536	1.306282450005913	-0.1244841922595216	-0.1244841922595147	0.4001447502968685	-0.1212185468452593	-0.418895109816238	-0.2024438155339801	1.896132556626641e-07	-3.431784444262827e-07	-4.533706494538339e-06	-3.209528623580683e-06	7.2302435451877e-07	-1.692032500102677e-07	-1.311838659538021e-06
